Coordinates
version=1
nRows=15
nColumns=34
inDegrees=no

Units are S.I. units (second, meters, Newtons, ...)
If the header above contains a line with 'inDegrees', this indicates whether rotational values are in degrees (yes) or radians (no).

endheader
time	pelvis_tilt	pelvis_list	pelvis_rotation	pelvis_tx	pelvis_ty	pelvis_tz	hip_flexion_r	hip_adduction_r	hip_rotation_r	knee_angle_r	ankle_angle_r	subtalar_angle_r	mtp_angle_r	hip_flexion_l	hip_adduction_l	hip_rotation_l	knee_angle_l	ankle_angle_l	subtalar_angle_l	mtp_angle_l	lumbar_extension	lumbar_bending	lumbar_rotation	arm_flex_r	arm_add_r	arm_rot_r	elbow_flex_r	pro_sup_r	arm_flex_l	arm_add_l	arm_rot_l	elbow_flex_l	pro_sup_l
0.39	-0.065375	-0.143093	0.0876943	0.344381	0.934799	-0.287727	0.0451253	0.140109	-0.364684	0.21028	0.343184	0.287272	-0.0070892	0.616787	-0.0697479	0.187937	0.97596	0.147501	-0.304448	-0.00704879	-0.224529	0.379268	0.00161438	-0.00933184	-0.28687	-0.223301	0.806393	1.57487	-0.268729	-0.179212	-0.192867	0.752317	1.90267
0.4	-0.0681476	-0.136142	0.0864877	0.352939	0.934092	-0.286852	0.0390718	0.131246	-0.382825	0.216876	0.35665	0.313655	-0.00709395	0.629047	-0.0637978	0.181071	0.919429	0.154978	-0.295442	-0.00699345	-0.222999	0.36422	0.00907673	-0.00707527	-0.286252	-0.216526	0.81015	1.5743	-0.268928	-0.17873	-0.207678	0.760555	1.88941
0.41	-0.0715318	-0.129752	0.0847521	0.361556	0.933218	-0.285915	0.0335914	0.123072	-0.399485	0.223339	0.369636	0.337243	-0.0070987	0.639584	-0.0593903	0.173028	0.859282	0.162105	-0.278559	-0.00693811	-0.220943	0.349438	0.0168503	-0.00519425	-0.285426	-0.210212	0.814197	1.57571	-0.268927	-0.178227	-0.220944	0.768148	1.87628
0.42	-0.0752652	-0.123861	0.0824363	0.370246	0.932201	-0.284917	0.028411	0.115604	-0.414094	0.229651	0.382151	0.357167	-0.00710344	0.648009	-0.056401	0.163858	0.795852	0.168676	-0.253257	-0.00688275	-0.218656	0.334861	0.0249769	-0.00361341	-0.284373	-0.204333	0.81844	1.57892	-0.268718	-0.177732	-0.232838	0.774913	1.86391
0.43	-0.0790579	-0.118341	0.0794769	0.379029	0.931071	-0.283857	0.0232136	0.108749	-0.426289	0.235808	0.394257	0.372979	-0.00710818	0.653912	-0.0546381	0.153563	0.729529	0.174431	-0.21959	-0.00682738	-0.216443	0.320357	0.0334804	-0.00223819	-0.283088	-0.198815	0.822735	1.58354	-0.268307	-0.177259	-0.243606	0.780817	1.85263
0.44	-0.0826194	-0.112999	0.0758045	0.387923	0.929856	-0.282738	0.0176729	0.102289	-0.435986	0.241842	0.406073	0.384765	-0.00711293	0.656914	-0.0538346	0.142134	0.660796	0.179106	-0.178258	-0.006772	-0.21459	0.305732	0.0423637	-0.000972151	-0.281584	-0.193548	0.826907	1.58903	-0.267709	-0.176806	-0.253506	0.785941	1.84245
0.45	-0.0856915	-0.1076	0.0713554	0.396953	0.928585	-0.281564	0.0114953	0.0959023	-0.443356	0.247825	0.417748	0.393055	-0.00711767	0.656732	-0.0536599	0.129608	0.590281	0.182491	-0.130582	-0.0067166	-0.213324	0.290751	0.051607	0.000265693	-0.279884	-0.188404	0.830786	1.5948	-0.26695	-0.176366	-0.262766	0.790413	1.83316
0.46	-0.088079	-0.101905	0.0660889	0.406137	0.927282	-0.280342	0.00446085	0.0892185	-0.448746	0.253855	0.429421	0.398647	-0.00712241	0.653247	-0.0537473	0.116121	0.518802	0.18447	-0.0784267	-0.0066612	-0.212791	0.275178	0.0611653	0.00152748	-0.278015	-0.18326	0.834232	1.60031	-0.266056	-0.175929	-0.271543	0.794341	1.82444
0.47	-0.0896726	-0.0957125	0.0600079	0.415494	0.925966	-0.279087	-0.00354574	0.0818867	-0.452595	0.260037	0.441186	0.402414	-0.00712714	0.646563	-0.0537304	0.101949	0.447409	0.18504	-0.0240496	-0.00660577	-0.213028	0.258823	0.0709652	0.00282904	-0.276004	-0.178018	0.837159	1.60512	-0.265049	-0.175485	-0.279915	0.79776	1.81603
0.48	-0.0904585	-0.0888961	0.0531765	0.425034	0.924647	-0.277813	-0.0125188	0.0736412	-0.45535	0.266459	0.453054	0.405156	-0.00713188	0.637035	-0.0532813	0.0875216	0.377389	0.184316	0.0300701	-0.00655034	-0.213961	0.241579	0.0809002	0.00414859	-0.273872	-0.172629	0.839536	1.60898	-0.263942	-0.175029	-0.287882	0.800611	1.80777
0.49	-0.0905172	-0.0814293	0.0457308	0.43476	0.923329	-0.276535	-0.0223336	0.0643536	-0.457402	0.273173	0.464935	0.407503	-0.00713661	0.625269	-0.052144	0.0733806	0.310243	0.182503	0.0814299	-0.00649489	-0.215408	0.223448	0.0908322	0.00542995	-0.271625	-0.167101	0.841382	1.6118	-0.262739	-0.174561	-0.295395	0.802743	1.79974
0.5	-0.0900146	-0.0733806	0.0378766	0.444672	0.922008	-0.275274	-0.0327721	0.0540585	-0.459045	0.280171	0.47663	0.409874	-0.00714135	0.612067	-0.0501588	0.0601045	0.247601	0.179875	0.127735	-0.00643944	-0.217101	0.204545	0.100599	0.00659001	-0.269251	-0.161506	0.842746	1.61364	-0.261438	-0.174089	-0.302384	0.803948	1.7922
0.51	-0.08918	-0.0648931	0.0298691	0.454763	0.92068	-0.274047	-0.0435639	0.0429446	-0.460445	0.287383	0.487849	0.412485	-0.00714608	0.59834	-0.0472687	0.0481888	0.191094	0.176742	0.167142	-0.00638397	-0.218729	0.18508	0.110029	0.0075274	-0.266717	-0.155969	0.843684	1.6147	-0.260032	-0.173627	-0.308797	0.804009	1.78555
0.52	-0.0882721	-0.056156	0.021979	0.465027	0.919335	-0.272873	-0.0544307	0.0313166	-0.461642	0.294674	0.498231	0.415383	-0.00715081	0.584998	-0.0435079	0.0379366	0.142177	0.173415	0.198471	-0.00632849	-0.219963	0.165313	0.118961	0.00813067	-0.263966	-0.150653	0.844232	1.61524	-0.258527	-0.173197	-0.314622	0.80276	1.78026
0.53	-0.0875483	-0.0473673	0.0144559	0.475458	0.917968	-0.271765	-0.0651272	0.0195339	-0.462568	0.301859	0.50739	0.418503	-0.00715553	0.572827	-0.0389741	0.0293926	0.101927	0.170142	0.221335	-0.00627299	-0.22049	0.145506	0.127258	0.00828571	-0.260924	-0.145728	0.844391	1.61552	-0.256948	-0.172828	-0.319906	0.800136	1.77677
